<mxfile host="app.diagrams.net" modified="2021-09-21T12:49:46.159Z" agent="5.0 (Windows NT 10.0; Win64; x64) AppleWebKit/537.36 (KHTML, like Gecko) Chrome/93.0.4577.82 Safari/537.36" etag="S145aBASiuEXF0kpso02" version="15.2.7" type="github">
  <diagram id="JsTvPjrothKBE_LoM7MP" name="Page-1">
    <mxGraphModel dx="782" dy="436" grid="1" gridSize="10" guides="1" tooltips="1" connect="1" arrows="1" fold="1" page="1" pageScale="1" pageWidth="850" pageHeight="1100" math="0" shadow="0">
      <root>
        <mxCell id="0" />
        <mxCell id="1" parent="0" />
        <mxCell id="_g5ZbXLjQNc9SDdM6Zzr-4" style="edgeStyle=orthogonalEdgeStyle;rounded=0;orthogonalLoop=1;jettySize=auto;html=1;entryX=0.5;entryY=0;entryDx=0;entryDy=0;" edge="1" parent="1" source="_g5ZbXLjQNc9SDdM6Zzr-1" target="_g5ZbXLjQNc9SDdM6Zzr-3">
          <mxGeometry relative="1" as="geometry" />
        </mxCell>
        <mxCell id="_g5ZbXLjQNc9SDdM6Zzr-1" value="" style="ellipse;whiteSpace=wrap;html=1;" vertex="1" parent="1">
          <mxGeometry x="340" y="50" width="120" height="80" as="geometry" />
        </mxCell>
        <mxCell id="_g5ZbXLjQNc9SDdM6Zzr-2" value="Start" style="text;html=1;strokeColor=none;fillColor=none;align=center;verticalAlign=middle;whiteSpace=wrap;rounded=0;" vertex="1" parent="1">
          <mxGeometry x="380" y="80" width="40" height="20" as="geometry" />
        </mxCell>
        <mxCell id="_g5ZbXLjQNc9SDdM6Zzr-8" style="edgeStyle=orthogonalEdgeStyle;rounded=0;orthogonalLoop=1;jettySize=auto;html=1;entryX=0.5;entryY=0;entryDx=0;entryDy=0;" edge="1" parent="1" source="_g5ZbXLjQNc9SDdM6Zzr-3" target="_g5ZbXLjQNc9SDdM6Zzr-6">
          <mxGeometry relative="1" as="geometry" />
        </mxCell>
        <mxCell id="_g5ZbXLjQNc9SDdM6Zzr-26" style="edgeStyle=orthogonalEdgeStyle;rounded=0;orthogonalLoop=1;jettySize=auto;html=1;" edge="1" parent="1" source="_g5ZbXLjQNc9SDdM6Zzr-3" target="_g5ZbXLjQNc9SDdM6Zzr-24">
          <mxGeometry relative="1" as="geometry" />
        </mxCell>
        <mxCell id="_g5ZbXLjQNc9SDdM6Zzr-3" value="" style="rhombus;whiteSpace=wrap;html=1;" vertex="1" parent="1">
          <mxGeometry x="350" y="190" width="100" height="80" as="geometry" />
        </mxCell>
        <mxCell id="_g5ZbXLjQNc9SDdM6Zzr-5" value="if lightSensor" style="text;html=1;strokeColor=none;fillColor=none;align=center;verticalAlign=middle;whiteSpace=wrap;rounded=0;" vertex="1" parent="1">
          <mxGeometry x="355" y="220" width="85" height="20" as="geometry" />
        </mxCell>
        <mxCell id="_g5ZbXLjQNc9SDdM6Zzr-11" style="edgeStyle=orthogonalEdgeStyle;rounded=0;orthogonalLoop=1;jettySize=auto;html=1;entryX=0.508;entryY=0.092;entryDx=0;entryDy=0;entryPerimeter=0;" edge="1" parent="1" source="_g5ZbXLjQNc9SDdM6Zzr-6" target="_g5ZbXLjQNc9SDdM6Zzr-9">
          <mxGeometry relative="1" as="geometry" />
        </mxCell>
        <mxCell id="_g5ZbXLjQNc9SDdM6Zzr-6" value="" style="rounded=1;whiteSpace=wrap;html=1;" vertex="1" parent="1">
          <mxGeometry x="340" y="320" width="120" height="60" as="geometry" />
        </mxCell>
        <mxCell id="_g5ZbXLjQNc9SDdM6Zzr-7" value="drive()" style="text;html=1;strokeColor=none;fillColor=none;align=center;verticalAlign=middle;whiteSpace=wrap;rounded=0;" vertex="1" parent="1">
          <mxGeometry x="380" y="340" width="40" height="20" as="geometry" />
        </mxCell>
        <mxCell id="_g5ZbXLjQNc9SDdM6Zzr-17" style="edgeStyle=orthogonalEdgeStyle;rounded=0;orthogonalLoop=1;jettySize=auto;html=1;entryX=0.5;entryY=0;entryDx=0;entryDy=0;" edge="1" parent="1" source="_g5ZbXLjQNc9SDdM6Zzr-9" target="_g5ZbXLjQNc9SDdM6Zzr-12">
          <mxGeometry relative="1" as="geometry" />
        </mxCell>
        <mxCell id="_g5ZbXLjQNc9SDdM6Zzr-21" style="edgeStyle=orthogonalEdgeStyle;rounded=0;orthogonalLoop=1;jettySize=auto;html=1;" edge="1" parent="1" source="_g5ZbXLjQNc9SDdM6Zzr-9">
          <mxGeometry relative="1" as="geometry">
            <mxPoint x="540" y="460" as="targetPoint" />
          </mxGeometry>
        </mxCell>
        <mxCell id="_g5ZbXLjQNc9SDdM6Zzr-9" value="" style="rhombus;whiteSpace=wrap;html=1;" vertex="1" parent="1">
          <mxGeometry x="360" y="420" width="80" height="80" as="geometry" />
        </mxCell>
        <mxCell id="_g5ZbXLjQNc9SDdM6Zzr-10" value="if dist" style="text;html=1;strokeColor=none;fillColor=none;align=center;verticalAlign=middle;whiteSpace=wrap;rounded=0;" vertex="1" parent="1">
          <mxGeometry x="377.5" y="450" width="40" height="20" as="geometry" />
        </mxCell>
        <mxCell id="_g5ZbXLjQNc9SDdM6Zzr-12" value="" style="rounded=1;whiteSpace=wrap;html=1;" vertex="1" parent="1">
          <mxGeometry x="340" y="540" width="120" height="60" as="geometry" />
        </mxCell>
        <mxCell id="_g5ZbXLjQNc9SDdM6Zzr-13" value="turn()" style="text;html=1;strokeColor=none;fillColor=none;align=center;verticalAlign=middle;whiteSpace=wrap;rounded=0;" vertex="1" parent="1">
          <mxGeometry x="377.5" y="560" width="40" height="20" as="geometry" />
        </mxCell>
        <mxCell id="_g5ZbXLjQNc9SDdM6Zzr-18" value="" style="endArrow=none;html=1;exitX=1;exitY=0.5;exitDx=0;exitDy=0;" edge="1" parent="1" source="_g5ZbXLjQNc9SDdM6Zzr-12">
          <mxGeometry width="50" height="50" relative="1" as="geometry">
            <mxPoint x="380" y="430" as="sourcePoint" />
            <mxPoint x="540" y="570" as="targetPoint" />
          </mxGeometry>
        </mxCell>
        <mxCell id="_g5ZbXLjQNc9SDdM6Zzr-19" value="" style="endArrow=none;html=1;" edge="1" parent="1">
          <mxGeometry width="50" height="50" relative="1" as="geometry">
            <mxPoint x="540" y="230" as="sourcePoint" />
            <mxPoint x="540" y="570" as="targetPoint" />
          </mxGeometry>
        </mxCell>
        <mxCell id="_g5ZbXLjQNc9SDdM6Zzr-20" value="" style="endArrow=classic;html=1;" edge="1" parent="1">
          <mxGeometry width="50" height="50" relative="1" as="geometry">
            <mxPoint x="540" y="230" as="sourcePoint" />
            <mxPoint x="450" y="230" as="targetPoint" />
          </mxGeometry>
        </mxCell>
        <mxCell id="_g5ZbXLjQNc9SDdM6Zzr-24" value="" style="ellipse;whiteSpace=wrap;html=1;" vertex="1" parent="1">
          <mxGeometry x="100" y="190" width="120" height="80" as="geometry" />
        </mxCell>
        <mxCell id="_g5ZbXLjQNc9SDdM6Zzr-25" value="Stop" style="text;html=1;strokeColor=none;fillColor=none;align=center;verticalAlign=middle;whiteSpace=wrap;rounded=0;" vertex="1" parent="1">
          <mxGeometry x="140" y="220" width="40" height="20" as="geometry" />
        </mxCell>
        <mxCell id="_g5ZbXLjQNc9SDdM6Zzr-27" value="btn8D || bumpSwitch" style="text;html=1;strokeColor=none;fillColor=none;align=center;verticalAlign=middle;whiteSpace=wrap;rounded=0;" vertex="1" parent="1">
          <mxGeometry x="210" y="200" width="150" height="20" as="geometry" />
        </mxCell>
      </root>
    </mxGraphModel>
  </diagram>
</mxfile>
